<svg width="50" height="50" viewBox="0 0 50 50" fill="none" xmlns="http://www.w3.org/2000/svg">
<path fill-rule="evenodd" clip-rule="evenodd" d="M33.2502 29.5002L32.242 28.4232V24.8025C32.2459 21.9762 30.5581 19.422 27.9567 18.3173V17.9048C28.0502 16.9004 27.5672 15.9296 26.7097 15.3984C25.8521 14.8672 24.7677 14.8672 23.9102 15.3984C23.0526 15.9296 22.5696 16.9004 22.6631 17.9048V18.3173C20.0527 19.4149 18.3549 21.9707 18.355 24.8025V28.4002L17.3467 29.4773C16.8562 30.0134 16.7286 30.7885 17.0214 31.4535C17.3142 32.1185 17.9721 32.5478 18.6987 32.548H22.159C22.5152 33.9817 23.7983 34.9912 25.2755 35H25.3214C26.7919 34.9939 28.0729 33.9955 28.4379 32.5709H31.9211C32.6477 32.5707 33.3056 32.1414 33.5984 31.4764C33.8912 30.8114 33.7636 30.0363 33.2732 29.5002H33.2502ZM24.0152 17.9048C23.9485 17.4097 24.1753 16.9209 24.5965 16.6521C25.0176 16.3832 25.5564 16.3832 25.9775 16.6521C26.3986 16.9209 26.6254 17.4097 26.5588 17.9048C25.7185 17.745 24.8555 17.745 24.0152 17.9048ZM25.3215 33.648H25.2756C24.5617 33.6476 23.9113 33.2377 23.6028 32.5939H26.9943C26.6793 33.2288 26.0302 33.6289 25.3215 33.6251V33.648ZM32.3336 30.921C32.2668 31.0896 32.1025 31.1992 31.9211 31.196H18.6757C18.4882 31.2028 18.3154 31.0946 18.2397 30.9229C18.1639 30.7512 18.2005 30.5507 18.332 30.4168L19.5236 29.1335C19.6394 29.0087 19.7047 28.8454 19.707 28.6752V24.8024C19.707 22.813 20.7683 20.9747 22.4912 19.9799C24.2141 18.9852 26.3369 18.9852 28.0598 19.9799C29.7827 20.9747 30.8441 22.813 30.8441 24.8024V28.6752C30.8463 28.8454 30.9116 29.0087 31.0274 29.1335L32.219 30.4168C32.3636 30.5415 32.4101 30.746 32.3336 30.921Z" fill="black"/>
</svg>
